<svg width="735.402" height="174.201" viewBox="0 0 735.402 174.201" xmlns="http://www.w3.org/2000/svg"><g id="svgGroup" stroke-linecap="round" fill-rule="evenodd" font-size="9pt" stroke="#00000000" stroke-width="0.25mm" fill="#ffd700" style="stroke:#00000000;stroke-width:0.25mm;fill:#ffd700"><path d="M 0.002 143.401 L 2.402 142.201 A 40.111 40.111 0 0 0 9.709 146.585 Q 15.455 149.201 21.202 149.201 Q 26.602 149.201 31.402 146.201 A 17.387 17.387 0 0 0 35.12 143.004 Q 36.574 141.378 37.905 139.239 A 40.155 40.155 0 0 0 39.902 135.601 A 47.104 47.104 0 0 0 42.257 129.69 Q 43.29 126.542 44.152 122.77 A 120.9 120.9 0 0 0 45.702 114.601 A 147.06 147.06 0 0 0 46.898 104.49 Q 47.35 99.236 47.576 93.164 A 349.386 349.386 0 0 0 47.802 80.201 A 228.438 228.438 0 0 1 48.099 68.182 Q 48.397 62.545 48.993 57.686 A 102.256 102.256 0 0 1 50.102 50.601 Q 52.402 38.801 59.602 29.001 A 30.624 30.624 0 0 0 56.489 27.122 A 40.522 40.522 0 0 0 53.502 25.701 Q 50.002 24.201 46.202 24.201 A 14.18 14.18 0 0 0 40.583 25.286 A 13.449 13.449 0 0 0 35.702 28.901 Q 31.602 33.601 31.602 40.801 A 24.925 24.925 0 0 0 32.11 45.707 A 31.27 31.27 0 0 0 32.902 48.801 A 30.102 30.102 0 0 0 35.113 54.051 A 37.303 37.303 0 0 0 37.002 57.201 A 55.363 55.363 0 0 1 28.578 56.596 Q 24.083 55.903 20.344 54.416 A 29.838 29.838 0 0 1 17.102 52.901 A 34.558 34.558 0 0 1 10.575 48.364 A 26.762 26.762 0 0 1 5.302 42.001 Q 1.402 35.401 1.402 28.201 Q 1.402 21.001 4.902 14.601 A 26.404 26.404 0 0 1 12.703 5.861 A 32.805 32.805 0 0 1 15.402 4.101 A 28.995 28.995 0 0 1 24.498 0.73 A 40.67 40.67 0 0 1 32.402 0.001 A 46.551 46.551 0 0 1 40.11 0.682 Q 43.841 1.309 47.907 2.514 A 81.628 81.628 0 0 1 49.802 3.101 Q 58.047 5.763 67.619 11.449 A 136.866 136.866 0 0 1 70.802 13.401 A 62.58 62.58 0 0 1 74.629 9.279 Q 78.628 5.37 82.114 3.734 A 14.556 14.556 0 0 1 83.402 3.201 A 52.961 52.961 0 0 1 86.362 2.234 Q 89.245 1.392 91.306 1.236 A 11.88 11.88 0 0 1 92.202 1.201 Q 100.402 1.201 104.202 6.701 A 21.351 21.351 0 0 1 107.779 16.243 A 27.633 27.633 0 0 1 108.002 19.801 Q 108.002 24.801 106.102 29.601 Q 104.202 34.401 100.202 37.501 A 14.207 14.207 0 0 1 94.775 40.049 Q 92.715 40.549 90.304 40.596 A 25.846 25.846 0 0 1 89.802 40.601 A 22.908 22.908 0 0 1 87.321 40.46 A 28.921 28.921 0 0 1 85.502 40.201 Q 83.357 39.828 80.777 38.933 A 43.537 43.537 0 0 1 80.402 38.801 Q 79.046 42.288 78.44 46.902 A 49.126 49.126 0 0 0 78.402 47.201 A 77.152 77.152 0 0 0 77.893 53.348 A 96.085 96.085 0 0 0 77.802 57.601 A 228.884 228.884 0 0 0 78.271 71.937 A 279.02 279.02 0 0 0 79.002 81.101 Q 80.202 93.601 80.202 105.601 Q 80.202 124.401 76.202 137.501 Q 72.796 148.656 67.504 156.186 A 44.338 44.338 0 0 1 65.602 158.701 A 47.868 47.868 0 0 1 58.88 165.515 A 36.732 36.732 0 0 1 51.002 170.501 A 39.468 39.468 0 0 1 39.399 173.908 A 36.229 36.229 0 0 1 34.802 174.201 Q 25.802 174.201 17.802 170.201 Q 9.802 166.201 4.902 159.201 Q 0.002 152.201 0.002 143.401 Z M 424.402 90.801 L 427.002 92.001 A 80.427 80.427 0 0 1 423.203 107.643 A 60.699 60.699 0 0 1 415.602 122.401 A 66.115 66.115 0 0 1 404.721 134.452 A 55.5 55.5 0 0 1 394.902 141.201 A 53.553 53.553 0 0 1 379.832 146.701 A 47.753 47.753 0 0 1 370.602 147.601 A 52.364 52.364 0 0 1 360.247 146.624 A 38.67 38.67 0 0 1 348.902 142.501 Q 339.802 137.401 333.902 128.501 A 61.128 61.128 0 0 1 326.274 111.944 A 71.189 71.189 0 0 1 325.302 108.301 A 87.339 87.339 0 0 1 322.95 87.934 A 95.616 95.616 0 0 1 323.002 84.801 Q 323.76 64.15 330.26 48.884 A 73.494 73.494 0 0 1 331.002 47.201 A 89.68 89.68 0 0 1 339.724 31.994 A 71.839 71.839 0 0 1 349.202 21.201 A 77.985 77.985 0 0 1 364.324 10.122 A 68.097 68.097 0 0 1 372.902 6.101 A 75.295 75.295 0 0 1 386.523 2.207 A 60.713 60.713 0 0 1 397.402 1.201 A 52.277 52.277 0 0 1 408.016 2.238 A 42.784 42.784 0 0 1 415.502 4.501 A 32.448 32.448 0 0 1 423.57 9.162 A 28.083 28.083 0 0 1 428.402 14.101 A 23.333 23.333 0 0 1 432.956 25.461 A 30.628 30.628 0 0 1 433.202 29.401 A 24.322 24.322 0 0 1 430.283 40.857 A 30.034 30.034 0 0 1 429.102 42.901 A 26.727 26.727 0 0 1 422.349 50.078 A 36.522 36.522 0 0 1 416.702 53.501 A 35.951 35.951 0 0 1 408.701 56.267 Q 404.839 57.142 400.318 57.443 A 74.092 74.092 0 0 1 395.402 57.601 Q 397.086 52.701 398.067 48.739 A 64.364 64.364 0 0 0 398.602 46.401 Q 399.358 42.773 399.542 39.944 A 26.823 26.823 0 0 0 399.602 38.201 Q 399.602 31.201 396.402 28.701 Q 393.202 26.201 388.402 26.201 Q 382.602 26.201 377.402 30.401 A 34.833 34.833 0 0 0 372.043 35.862 A 47.722 47.722 0 0 0 368.102 41.701 Q 364.002 48.801 361.602 57.401 Q 359.202 66.001 358.802 74.801 Q 358.253 90.025 361.467 100.17 A 35.315 35.315 0 0 0 365.202 108.401 A 29.563 29.563 0 0 0 370.112 114.412 A 19.568 19.568 0 0 0 383.802 119.801 A 25.719 25.719 0 0 0 391.565 118.519 Q 397.116 116.763 403.302 112.601 A 64.398 64.398 0 0 0 412.277 105.209 Q 416.384 101.199 420.445 96.074 A 128.975 128.975 0 0 0 424.402 90.801 Z M 247.535 147.727 A 74.683 74.683 0 0 0 256.202 148.201 A 84.078 84.078 0 0 0 262.397 147.976 A 70.989 70.989 0 0 0 282.802 143.501 A 63.155 63.155 0 0 0 292.617 138.767 A 45.508 45.508 0 0 0 302.302 131.101 A 31.298 31.298 0 0 0 305.748 126.793 A 22.16 22.16 0 0 0 309.602 114.401 A 21.414 21.414 0 0 0 309.509 112.387 A 16.508 16.508 0 0 0 305.802 103.201 Q 302.002 98.601 296.002 95.001 A 131.879 131.879 0 0 0 294.107 93.885 A 146.65 146.65 0 0 0 283.202 88.201 Q 278.202 85.801 273.502 83.101 Q 268.802 80.401 265.702 76.901 Q 262.602 73.401 262.602 68.601 A 14.136 14.136 0 0 1 262.609 68.145 Q 262.653 66.772 262.968 65.625 A 7.062 7.062 0 0 1 265.002 62.201 A 8.077 8.077 0 0 1 268.01 60.445 A 9.69 9.69 0 0 1 271.002 60.001 A 10.421 10.421 0 0 1 273.075 60.208 Q 275.326 60.664 277.45 62.122 A 18.162 18.162 0 0 1 280.402 64.701 Q 284.611 69.196 284.611 78.724 A 44.717 44.717 0 0 1 284.602 79.601 Q 292.164 79.601 297.346 77.815 A 18.73 18.73 0 0 0 303.002 74.801 A 24.351 24.351 0 0 0 303.529 74.367 Q 309.002 69.731 309.002 64.001 A 12.727 12.727 0 0 0 307.898 58.847 Q 306.893 56.552 304.972 54.351 A 28.609 28.609 0 0 0 301.202 50.801 Q 295.718 46.441 286.476 45.147 A 61.261 61.261 0 0 0 278.002 44.601 A 65.07 65.07 0 0 0 274.654 44.687 A 72.343 72.343 0 0 0 261.202 46.701 Q 252.602 48.801 245.202 52.901 A 43.206 43.206 0 0 0 241.269 55.357 A 35.124 35.124 0 0 0 233.302 63.001 Q 228.802 69.001 228.802 76.801 Q 228.802 84.201 232.602 89.501 Q 236.402 94.801 241.802 98.501 Q 247.202 102.201 251.802 105.001 A 237.706 237.706 0 0 1 257.228 108.158 Q 262.817 111.515 266.802 114.401 A 22.029 22.029 0 0 1 267.17 114.673 Q 268.918 115.995 270.104 117.454 A 10.457 10.457 0 0 1 272.602 124.201 A 8.606 8.606 0 0 1 271.753 128.032 A 9.115 9.115 0 0 1 269.502 130.901 A 10.589 10.589 0 0 1 265.601 133.065 A 12.937 12.937 0 0 1 261.802 133.601 Q 258.002 133.601 253.902 131.001 Q 249.802 128.401 247.202 122.301 A 27.106 27.106 0 0 1 245.785 117.896 Q 245.177 115.321 244.882 112.253 A 65.376 65.376 0 0 1 244.602 106.001 Q 239.697 106.001 235.65 107.056 A 23.042 23.042 0 0 0 226.202 111.901 A 24.045 24.045 0 0 0 223.222 114.963 A 16.259 16.259 0 0 0 219.402 125.401 A 15.631 15.631 0 0 0 220.887 131.945 A 22.3 22.3 0 0 0 223.402 136.101 A 20.651 20.651 0 0 0 225.128 138.101 Q 229.006 142.066 235.602 144.801 Q 240.743 146.932 247.535 147.727 Z M 673.335 147.727 A 74.683 74.683 0 0 0 682.002 148.201 A 84.078 84.078 0 0 0 688.197 147.976 A 70.989 70.989 0 0 0 708.602 143.501 A 63.155 63.155 0 0 0 718.417 138.767 A 45.508 45.508 0 0 0 728.102 131.101 A 31.298 31.298 0 0 0 731.548 126.793 A 22.16 22.16 0 0 0 735.402 114.401 A 21.414 21.414 0 0 0 735.309 112.387 A 16.508 16.508 0 0 0 731.602 103.201 Q 727.802 98.601 721.802 95.001 A 131.879 131.879 0 0 0 719.907 93.885 A 146.65 146.65 0 0 0 709.002 88.201 Q 704.002 85.801 699.302 83.101 Q 694.602 80.401 691.502 76.901 Q 688.402 73.401 688.402 68.601 A 14.136 14.136 0 0 1 688.409 68.145 Q 688.453 66.772 688.768 65.625 A 7.062 7.062 0 0 1 690.802 62.201 A 8.077 8.077 0 0 1 693.81 60.445 A 9.69 9.69 0 0 1 696.802 60.001 A 10.421 10.421 0 0 1 698.875 60.208 Q 701.126 60.664 703.25 62.122 A 18.162 18.162 0 0 1 706.202 64.701 Q 710.411 69.196 710.411 78.724 A 44.717 44.717 0 0 1 710.402 79.601 Q 717.964 79.601 723.146 77.815 A 18.73 18.73 0 0 0 728.802 74.801 A 24.351 24.351 0 0 0 729.329 74.367 Q 734.802 69.731 734.802 64.001 A 12.727 12.727 0 0 0 733.698 58.847 Q 732.693 56.552 730.772 54.351 A 28.609 28.609 0 0 0 727.002 50.801 Q 721.518 46.441 712.276 45.147 A 61.261 61.261 0 0 0 703.802 44.601 A 65.07 65.07 0 0 0 700.454 44.687 A 72.343 72.343 0 0 0 687.002 46.701 Q 678.402 48.801 671.002 52.901 A 43.206 43.206 0 0 0 667.069 55.357 A 35.124 35.124 0 0 0 659.102 63.001 Q 654.602 69.001 654.602 76.801 Q 654.602 84.201 658.402 89.501 Q 662.202 94.801 667.602 98.501 Q 673.002 102.201 677.602 105.001 A 237.706 237.706 0 0 1 683.028 108.158 Q 688.617 111.515 692.602 114.401 A 22.029 22.029 0 0 1 692.97 114.673 Q 694.718 115.995 695.904 117.454 A 10.457 10.457 0 0 1 698.402 124.201 A 8.606 8.606 0 0 1 697.553 128.032 A 9.115 9.115 0 0 1 695.302 130.901 A 10.589 10.589 0 0 1 691.401 133.065 A 12.937 12.937 0 0 1 687.602 133.601 Q 683.802 133.601 679.702 131.001 Q 675.602 128.401 673.002 122.301 A 27.106 27.106 0 0 1 671.585 117.896 Q 670.977 115.321 670.682 112.253 A 65.376 65.376 0 0 1 670.402 106.001 Q 665.497 106.001 661.45 107.056 A 23.042 23.042 0 0 0 652.002 111.901 A 24.045 24.045 0 0 0 649.022 114.963 A 16.259 16.259 0 0 0 645.202 125.401 A 15.631 15.631 0 0 0 646.687 131.945 A 22.3 22.3 0 0 0 649.202 136.101 A 20.651 20.651 0 0 0 650.928 138.101 Q 654.806 142.066 661.402 144.801 Q 666.543 146.932 673.335 147.727 Z M 211.402 55.001 L 211.802 56.201 Q 209.402 61.601 207.002 69.201 A 234.777 234.777 0 0 0 203.108 83.037 A 260.31 260.31 0 0 0 202.602 85.101 A 195.196 195.196 0 0 0 199.714 99.319 A 176.858 176.858 0 0 0 199.402 101.301 A 122.19 122.19 0 0 0 198.671 106.958 Q 198.348 110.047 198.248 112.784 A 65.766 65.766 0 0 0 198.202 115.201 Q 198.202 121.801 199.602 124.301 A 7.292 7.292 0 0 0 200.364 125.424 Q 200.849 126.003 201.394 126.339 A 3.01 3.01 0 0 0 203.002 126.801 Q 206.347 126.801 209.112 122.154 A 20.681 20.681 0 0 0 209.202 122.001 L 210.802 122.801 Q 210.802 129.601 206.402 135.201 Q 202.002 140.801 195.402 144.101 A 31.783 31.783 0 0 1 187.977 146.769 A 26.953 26.953 0 0 1 182.202 147.401 Q 175.202 147.401 170.002 142.801 A 13.808 13.808 0 0 1 166.269 137.214 Q 164.802 133.326 164.802 127.801 L 164.802 125.801 Q 164.802 124.801 165.002 123.801 A 71.409 71.409 0 0 1 160.7 131.306 Q 158.194 135.088 155.467 137.938 A 33.864 33.864 0 0 1 151.502 141.501 Q 144.02 147.187 136.438 147.201 A 20.266 20.266 0 0 1 136.402 147.201 Q 129.402 147.201 123.202 142.301 Q 117.002 137.401 113.202 127.801 A 50.64 50.64 0 0 1 110.474 117.922 Q 109.636 113.159 109.453 107.708 A 92.479 92.479 0 0 1 109.402 104.601 Q 109.402 90.601 113.302 79.601 A 66.986 66.986 0 0 1 118.07 69.017 A 52.457 52.457 0 0 1 123.602 61.001 A 51.281 51.281 0 0 1 130.686 54.014 A 40.756 40.756 0 0 1 137.602 49.501 A 37.619 37.619 0 0 1 144.639 46.701 A 28.747 28.747 0 0 1 152.402 45.601 Q 160.402 45.601 166.802 50.501 Q 172.378 54.77 174.918 63.367 A 42.151 42.151 0 0 1 175.602 66.001 Q 176.202 62.601 176.502 59.801 A 117.323 117.323 0 0 0 176.626 58.587 Q 176.771 57.086 176.796 56.302 A 9.372 9.372 0 0 0 176.802 56.001 A 8.759 8.759 0 0 1 178.1 51.569 Q 179.476 49.387 182.302 48.001 A 25.724 25.724 0 0 1 192.321 45.447 A 30.48 30.48 0 0 1 194.002 45.401 Q 199.602 45.401 204.602 47.601 A 12.012 12.012 0 0 1 211.226 54.52 A 14.785 14.785 0 0 1 211.402 55.001 Z M 543.002 55.001 L 543.402 56.201 Q 541.002 61.601 538.602 69.201 A 234.777 234.777 0 0 0 534.708 83.037 A 260.31 260.31 0 0 0 534.202 85.101 A 195.196 195.196 0 0 0 531.314 99.319 A 176.858 176.858 0 0 0 531.002 101.301 A 122.19 122.19 0 0 0 530.271 106.958 Q 529.948 110.047 529.848 112.784 A 65.766 65.766 0 0 0 529.802 115.201 Q 529.802 121.801 531.202 124.301 A 7.292 7.292 0 0 0 531.964 125.424 Q 532.449 126.003 532.994 126.339 A 3.01 3.01 0 0 0 534.602 126.801 Q 537.947 126.801 540.712 122.154 A 20.681 20.681 0 0 0 540.802 122.001 L 542.402 122.801 Q 542.402 129.601 538.002 135.201 Q 533.602 140.801 527.002 144.101 A 31.783 31.783 0 0 1 519.577 146.769 A 26.953 26.953 0 0 1 513.802 147.401 Q 506.802 147.401 501.602 142.801 A 13.808 13.808 0 0 1 497.869 137.214 Q 496.402 133.326 496.402 127.801 L 496.402 125.801 Q 496.402 124.801 496.602 123.801 A 71.409 71.409 0 0 1 492.3 131.306 Q 489.794 135.088 487.067 137.938 A 33.864 33.864 0 0 1 483.102 141.501 Q 475.62 147.187 468.038 147.201 A 20.266 20.266 0 0 1 468.002 147.201 Q 461.002 147.201 454.802 142.301 Q 448.602 137.401 444.802 127.801 A 50.64 50.64 0 0 1 442.074 117.922 Q 441.236 113.159 441.053 107.708 A 92.479 92.479 0 0 1 441.002 104.601 Q 441.002 90.601 444.902 79.601 A 66.986 66.986 0 0 1 449.67 69.017 A 52.457 52.457 0 0 1 455.202 61.001 A 51.281 51.281 0 0 1 462.286 54.014 A 40.756 40.756 0 0 1 469.202 49.501 A 37.619 37.619 0 0 1 476.239 46.701 A 28.747 28.747 0 0 1 484.002 45.601 Q 492.002 45.601 498.402 50.501 Q 503.978 54.77 506.518 63.367 A 42.151 42.151 0 0 1 507.202 66.001 Q 507.802 62.601 508.102 59.801 A 117.323 117.323 0 0 0 508.226 58.587 Q 508.371 57.086 508.396 56.302 A 9.372 9.372 0 0 0 508.402 56.001 A 8.759 8.759 0 0 1 509.7 51.569 Q 511.076 49.387 513.902 48.001 A 25.724 25.724 0 0 1 523.921 45.447 A 30.48 30.48 0 0 1 525.602 45.401 Q 531.202 45.401 536.202 47.601 A 12.012 12.012 0 0 1 542.826 54.52 A 14.785 14.785 0 0 1 543.002 55.001 Z M 553.602 72.201 L 552.402 71.401 Q 552.241 68.834 553.239 65.495 A 30.598 30.598 0 0 1 553.802 63.801 A 27.018 27.018 0 0 1 556.852 57.893 A 33.275 33.275 0 0 1 558.802 55.301 A 26.871 26.871 0 0 1 564.671 50.078 A 32.815 32.815 0 0 1 567.502 48.401 A 23.701 23.701 0 0 1 574.667 46.028 A 31.936 31.936 0 0 1 580.002 45.601 Q 587.106 45.601 591.605 48.34 A 14.163 14.163 0 0 1 595.402 51.701 A 22.362 22.362 0 0 1 600.082 63.742 A 28.839 28.839 0 0 1 600.202 66.401 A 42.478 42.478 0 0 1 600.146 68.557 A 47.265 47.265 0 0 1 600.102 69.301 A 39.172 39.172 0 0 1 599.85 71.849 A 35.758 35.758 0 0 1 599.802 72.201 Q 607.002 59.201 614.902 52.301 A 39.109 39.109 0 0 1 619.481 48.821 Q 621.97 47.225 624.341 46.373 A 15.521 15.521 0 0 1 629.602 45.401 A 12.888 12.888 0 0 1 633.436 45.939 A 9.689 9.689 0 0 1 639.002 50.401 A 20.642 20.642 0 0 1 641.58 57.432 A 28.032 28.032 0 0 1 642.002 62.401 A 35.324 35.324 0 0 1 640.476 72.523 A 41.879 41.879 0 0 1 639.502 75.401 A 28.121 28.121 0 0 1 635.219 83.033 A 25.43 25.43 0 0 1 632.102 86.301 A 16.44 16.44 0 0 1 621.231 90.406 Q 621.026 90.41 620.82 90.41 A 21.641 21.641 0 0 1 620.202 90.401 L 619.402 90.001 Q 619.202 84.801 616.002 81.801 A 11.559 11.559 0 0 0 612.938 79.698 A 9.77 9.77 0 0 0 608.802 78.801 A 11.208 11.208 0 0 0 602.714 80.655 Q 601.1 81.678 599.559 83.267 A 23.503 23.503 0 0 0 598.702 84.201 A 17.422 17.422 0 0 0 595.328 90.318 Q 594.002 94.382 594.002 99.801 A 63.097 63.097 0 0 0 594.445 107.092 A 81.304 81.304 0 0 0 595.402 113.201 A 93.436 93.436 0 0 1 596.241 118.192 Q 596.557 120.467 596.695 122.463 A 42.707 42.707 0 0 1 596.802 125.401 Q 596.802 131.401 594.002 136.401 Q 591.202 141.401 586.802 144.301 Q 582.402 147.201 577.202 147.201 A 16.519 16.519 0 0 1 566.386 143.164 A 22.988 22.988 0 0 1 564.402 141.301 A 19.25 19.25 0 0 1 559.912 133.248 Q 559.045 130.25 558.855 126.658 A 38.997 38.997 0 0 1 558.802 124.601 A 53.672 53.672 0 0 1 559.032 119.783 Q 559.253 117.331 559.688 114.629 A 91.999 91.999 0 0 1 560.002 112.801 A 286.994 286.994 0 0 1 562.752 99.516 A 311.503 311.503 0 0 1 562.802 99.301 Q 564.402 92.401 565.602 86.301 A 82.249 82.249 0 0 0 566.285 82.355 Q 566.56 80.48 566.688 78.86 A 33.718 33.718 0 0 0 566.802 76.201 A 19.115 19.115 0 0 0 566.629 73.542 Q 566.439 72.197 566.043 71.087 A 8.854 8.854 0 0 0 565.302 69.501 A 6.456 6.456 0 0 0 564.332 68.237 A 4.018 4.018 0 0 0 561.402 67.001 Q 557.827 67.001 554.075 71.603 A 26.976 26.976 0 0 0 553.602 72.201 Z M 149.602 122.001 A 7.375 7.375 0 0 0 153.198 120.963 Q 156.906 118.895 161.102 112.701 Q 167.402 103.401 172.002 86.001 A 289.559 289.559 0 0 1 172.789 82.554 A 266.831 266.831 0 0 1 172.802 82.501 Q 173.202 80.801 173.402 79.201 A 52.748 52.748 0 0 0 171.475 75.186 Q 169.407 71.334 167.219 69.184 A 13.623 13.623 0 0 0 166.702 68.701 A 15.563 15.563 0 0 0 164.429 67.008 Q 162.093 65.601 159.802 65.601 A 9.802 9.802 0 0 0 154.398 67.278 Q 152.95 68.215 151.571 69.677 A 21.731 21.731 0 0 0 150.502 70.901 Q 146.233 76.162 143.542 84.084 A 59.695 59.695 0 0 0 143.502 84.201 A 49.88 49.88 0 0 0 140.805 99.701 A 47.408 47.408 0 0 0 140.802 100.201 A 77.516 77.516 0 0 0 141 105.945 Q 141.505 112.719 143.302 116.601 Q 145.802 122.001 149.602 122.001 Z M 481.202 122.001 A 7.375 7.375 0 0 0 484.798 120.963 Q 488.506 118.895 492.702 112.701 Q 499.002 103.401 503.602 86.001 A 289.559 289.559 0 0 1 504.389 82.554 A 266.831 266.831 0 0 1 504.402 82.501 Q 504.802 80.801 505.002 79.201 A 52.748 52.748 0 0 0 503.075 75.186 Q 501.007 71.334 498.819 69.184 A 13.623 13.623 0 0 0 498.302 68.701 A 15.563 15.563 0 0 0 496.029 67.008 Q 493.693 65.601 491.402 65.601 A 9.802 9.802 0 0 0 485.998 67.278 Q 484.55 68.215 483.171 69.677 A 21.731 21.731 0 0 0 482.102 70.901 Q 477.833 76.162 475.142 84.084 A 59.695 59.695 0 0 0 475.102 84.201 A 49.88 49.88 0 0 0 472.405 99.701 A 47.408 47.408 0 0 0 472.402 100.201 A 77.516 77.516 0 0 0 472.6 105.945 Q 473.105 112.719 474.902 116.601 Q 477.402 122.001 481.202 122.001 Z" vector-effect="non-scaling-stroke"/></g></svg>